<?xml version="1.0" standalone="no"?><!DOCTYPE svg PUBLIC "-//W3C//DTD SVG 1.1//EN" "http://www.w3.org/Graphics/SVG/1.1/DTD/svg11.dtd"><svg t="1711073527310" class="icon" viewBox="0 0 1024 1024" version="1.1" xmlns="http://www.w3.org/2000/svg" p-id="2623" xmlns:xlink="http://www.w3.org/1999/xlink" width="200" height="200"><path d="M528 32C325.056 32 160 196.8 160 399.36c0 75.2 22.656 147.584 65.024 208.48 2.112 3.648 4.256 7.168 6.784 10.592l268.608 353.472c7.296 8.096 17.088 12.576 27.584 12.576 10.368 0 20.224-4.512 28.768-14.08l267.36-352c2.624-3.52 4.896-7.36 6.112-9.6A364.864 364.864 0 0 0 896 399.36C896 196.8 730.912 32 528 32z m0 498.72a131.52 131.52 0 0 1-131.456-131.232 131.488 131.488 0 0 1 262.88 0 131.52 131.52 0 0 1-131.424 131.2z" fill="#9C9C9C" p-id="2624"></path></svg>