<svg width="16" height="16" viewBox="0 0 16 16" fill="none" xmlns="http://www.w3.org/2000/svg">
<path d="M1.49425 1.34529C1.52981 1.26352 1.6465 1.26564 1.67906 1.34864L2.03041 2.24448C2.05179 2.29898 2.1152 2.32355 2.16771 2.29767L2.55802 2.10534C3.3143 1.73267 4.13259 1.48081 4.98199 1.36446C6.64749 1.1363 8.34472 1.44113 9.81855 2.23442C11.2926 3.02782 12.4648 4.26783 13.1558 5.77015C13.8468 7.27274 14.0179 8.95444 13.6425 10.561C13.4942 11.1954 13.2639 11.8042 12.9602 12.374L12.7575 12.7543C12.7302 12.8056 12.7522 12.8693 12.8054 12.8928L13.6208 13.2523C13.7022 13.2882 13.6997 13.4047 13.6167 13.437L11.4883 14.2665C11.4367 14.2866 11.3787 14.2611 11.3587 14.2095L10.5309 12.0765C10.4987 11.9934 10.583 11.9129 10.6645 11.9488L11.5709 12.3485C11.6179 12.3692 11.6729 12.351 11.6982 12.3064L11.8768 11.9922C12.1762 11.4652 12.4 10.8971 12.5389 10.3031C12.8568 8.94263 12.7123 7.51825 12.1261 6.2437C11.5398 4.9689 10.5424 3.91114 9.28139 3.23237C8.02015 2.5535 6.56501 2.29152 5.13581 2.4873C4.39272 2.5891 3.6782 2.81169 3.02029 3.14116C2.9975 3.15258 2.97454 3.16223 2.95151 3.17024L2.5587 3.30689C2.50509 3.32554 2.47774 3.38502 2.49846 3.43785L2.85986 4.35931C2.89239 4.44225 2.8084 4.52312 2.72675 4.48747L0.634229 3.5738C0.583671 3.55172 0.56054 3.49287 0.582537 3.44228L1.49425 1.34529Z" fill="#067BEF"/>
</svg>
